<svg width="20" height="20" viewBox="0 0 20 20" fill="none" xmlns="http://www.w3.org/2000/svg">
<path fill-rule="evenodd" clip-rule="evenodd" d="M17.4016 5.18524C18.4533 5.18523 19.4013 4.55261 19.803 3.58275C20.2046 2.61288 19.9807 1.49708 19.2357 0.756304C18.4908 0.0155296 17.3718 -0.204099 16.4011 0.199964C15.4305 0.604026 14.7997 1.55208 14.8033 2.60148C14.8082 4.02987 15.97 5.18525 17.4016 5.18524ZM17.4016 1.48155C18.0215 1.48155 18.524 1.98296 18.524 2.60148C18.524 3.21999 18.0215 3.7214 17.4016 3.7214C16.7817 3.7214 16.2792 3.21999 16.2792 2.60148C16.2792 1.98296 16.7817 1.48155 17.4016 1.48155ZM1.47591 13.9947C1.47591 16.9224 3.09323 18.5273 6.01854 18.5273C6.42655 18.5321 6.75614 18.861 6.76092 19.2681C6.75608 19.6737 6.42512 20 6.01854 20C2.30667 20 0 17.6984 0 13.9947V6.79017C0 3.07766 2.30667 0.776086 6.01854 0.776086H12.5232C12.9297 0.780916 13.2567 1.11114 13.2567 1.51682C13.2567 1.71248 13.1782 1.89999 13.0387 2.03751C12.8993 2.17503 12.7104 2.2511 12.5143 2.24874H6.01854C3.09323 2.24874 1.47591 3.86249 1.47591 6.79017V13.9947ZM11.8692 12.0723C11.7454 12.2248 11.5688 12.3255 11.3742 12.3545C11.1806 12.3742 10.987 12.3172 10.8351 12.1958L8.12194 10.0706L5.6827 13.2364C5.56639 13.3943 5.39148 13.499 5.19713 13.5272C5.00278 13.5554 4.80522 13.5046 4.64868 13.3863C4.32922 13.1364 4.27016 12.6768 4.51612 12.3545L7.40608 8.59793C7.52663 8.44218 7.70435 8.3407 7.9 8.31588C8.09565 8.29107 8.29316 8.34495 8.44894 8.46565L11.1621 10.5909L13.5483 7.54855C13.8103 7.30005 14.2146 7.27896 14.501 7.49884C14.7875 7.71871 14.8708 8.11403 14.6973 8.43038L11.8692 12.0723ZM18.5594 6.79017C18.1543 6.79017 17.8258 7.11786 17.8258 7.52209V13.9947C17.7993 16.9224 16.182 18.5273 13.2567 18.5273H10.3049C9.89686 18.5321 9.56727 18.861 9.5625 19.2681C9.56734 19.6737 9.8983 20 10.3049 20H13.2567C16.9686 20 19.2841 17.6984 19.2841 13.9947V7.52209C19.2841 7.12128 18.961 6.795 18.5594 6.79017Z" fill="#676767"/>
</svg>
