<svg width="16" height="10" viewBox="0 0 16 10" fill="none" xmlns="http://www.w3.org/2000/svg">
<path fill-rule="evenodd" clip-rule="evenodd" d="M0.24169 0.743997C0.563211 0.419411 1.08445 0.41718 1.40597 0.746228L8.58258 8.07227C8.9041 8.4002 8.903 8.93002 8.58038 9.25572C8.42017 9.41746 8.20948 9.5 7.99989 9.5C7.7881 9.5 7.57741 9.41746 7.4172 9.25349L0.240593 1.92745C-0.0809282 1.59952 -0.0798308 1.0697 0.24169 0.743997ZM14.5929 0.746339C14.9145 0.417292 15.4357 0.419523 15.7572 0.744108C16.0798 1.06981 16.0809 1.59963 15.7605 1.92756L10.9948 6.793C10.8345 6.95697 10.6228 7.03951 10.4121 7.03951C10.2025 7.03951 9.99178 6.95697 9.83157 6.79523C9.50895 6.46953 9.50786 5.93971 9.82828 5.61178L14.5929 0.746339Z" fill="#676767"/>
</svg>
