<svg width="24" height="24" viewBox="0 0 24 24" fill="none" xmlns="http://www.w3.org/2000/svg">
<path fill-rule="evenodd" clip-rule="evenodd" d="M2.51542 4.35614C1.91457 5.18172 1.95657 6.23935 2.60175 7.65612C2.80126 8.09573 2.60759 8.61346 2.16774 8.81402C1.72673 9.01342 1.20989 8.82102 1.00921 8.38025C0.0910235 6.36645 0.108524 4.68498 1.06055 3.38714C1.41522 2.79361 3.64478 0.213102 5.55933 0.337871C6.16134 0.388012 6.71203 0.667869 7.22887 1.17161C7.77955 1.70917 10.0919 4.52173 10.2774 5.41144C10.4768 6.36794 10.0472 7.11492 9.73343 7.66052L9.7326 7.66195C9.42343 8.19951 9.31609 8.42922 9.42226 8.71957C10.2028 10.6284 11.4091 12.1886 12.997 13.322C13.3902 13.6042 13.48 14.15 13.1989 14.5429C13.0285 14.7808 12.7602 14.9091 12.4872 14.9091C12.3098 14.9091 12.1325 14.8554 11.9785 14.7458C10.1188 13.4153 8.70941 11.5998 7.78889 9.34808C7.38404 8.23449 7.86472 7.39958 8.2159 6.78973C8.47957 6.33263 8.62541 6.05977 8.56357 5.76825C8.40024 5.3473 6.69452 3.09562 6.00617 2.42513C5.79384 2.21641 5.59433 2.09397 5.44616 2.08231C4.61081 2.06249 2.90276 3.71364 2.51542 4.35614ZM18.5889 13.7191C19.4826 13.9045 22.2931 16.2156 22.831 16.7649C23.3373 17.2826 23.6173 17.8342 23.6652 18.402C23.741 20.5511 20.8628 22.7969 20.5326 22.9858C19.9049 23.4383 19.1687 23.6668 18.3404 23.6668C17.5167 23.6668 16.602 23.4406 15.6115 22.9788C11.8022 21.3977 6.04106 16.2705 2.79998 11.5654C2.5258 11.1677 2.62614 10.6232 3.02398 10.3492C3.42299 10.0786 3.96784 10.1766 4.24085 10.5742C7.26842 14.9691 12.7986 19.9168 16.3173 21.379C17.7407 22.0402 18.8 22.081 19.5887 21.5154C20.2036 21.1435 21.9501 19.4083 21.9186 18.5058C21.9081 18.3997 21.7868 18.2003 21.5803 17.9892C20.9083 17.3013 18.653 15.5953 18.1817 15.4181C17.8095 15.3388 17.4222 15.565 16.8318 15.937L16.5332 16.1224C16.119 16.3707 15.5811 16.239 15.3315 15.8239C15.083 15.4111 15.216 14.8735 15.6301 14.624L15.8996 14.4572C16.553 14.0456 17.4548 13.4836 18.5889 13.7191Z" fill="white"/>
</svg>
