<svg width="24" height="24" viewBox="0 0 24 24" fill="none" xmlns="http://www.w3.org/2000/svg">
<path fill-rule="evenodd" clip-rule="evenodd" d="M23.0731 4.35034V7.68951C23.084 8.59742 22.7412 9.47258 22.1201 10.1224C21.4989 10.7723 20.6503 11.1436 19.7609 11.1547H18.4031C17.9431 11.1044 17.5943 10.7082 17.5943 10.2359C17.5943 9.76363 17.9431 9.36737 18.4031 9.3171H19.7198C20.1362 9.31434 20.5344 9.14207 20.826 8.83849C21.1176 8.53492 21.2785 8.12513 21.273 7.70001V4.35034C21.2619 3.47937 20.5729 2.77607 19.7198 2.76475H16.4385C15.5807 2.76475 14.8853 3.47464 14.8853 4.35034V9.3591C14.8685 9.867 14.4573 10.2681 13.9595 10.2621C13.7203 10.2567 13.4932 10.1537 13.3289 9.97609C13.1647 9.79852 13.0769 9.56119 13.0852 9.3171V4.35034C13.0825 3.44064 13.4345 2.56724 14.0637 1.92299C14.6929 1.27875 15.5473 0.916652 16.4385 0.916656H19.7198C21.5573 0.961199 23.035 2.47433 23.0731 4.35034ZM7.56153 0.916656H4.28025C2.42727 0.928121 0.927902 2.45874 0.916672 4.35034V7.70001C0.927952 9.58989 2.42893 11.1175 4.28025 11.1232H7.56153C8.45266 11.126 9.30822 10.7666 9.93931 10.1243C10.5704 9.48202 10.9251 8.60972 10.9251 7.70001V4.35034C10.9195 2.45636 9.41683 0.922422 7.56153 0.916656ZM9.11474 7.70001C9.12023 8.12513 8.95934 8.53492 8.66776 8.83849C8.37618 9.14207 7.978 9.31434 7.56153 9.3171H4.28025C3.85758 9.32576 3.44972 9.15817 3.15079 8.85301C2.85186 8.54785 2.68769 8.13148 2.69618 7.70001V4.35033C2.6961 3.9243 2.86397 3.51615 3.16196 3.21787C3.45995 2.9196 3.86299 2.75629 4.28025 2.76475H7.56153C8.41701 2.77048 9.10913 3.47702 9.11474 4.35033V7.70001ZM16.4385 12.8768H19.7198C21.5711 12.8825 23.0721 14.4101 23.0833 16.3V19.6496C23.0721 21.5412 21.5727 23.0719 19.7198 23.0833H16.4385C14.5872 23.0718 13.0908 21.5395 13.0852 19.6496V16.3C13.0852 14.4094 14.5865 12.8768 16.4385 12.8768ZM20.8211 20.7739C21.113 20.476 21.2757 20.071 21.273 19.6496V16.3C21.273 15.8794 21.1093 15.4761 20.8181 15.1788C20.5268 14.8814 20.1317 14.7144 19.7198 14.7144H16.4385C15.5807 14.7144 14.8853 15.4243 14.8853 16.3V19.6496C14.8825 20.071 15.0453 20.476 15.3371 20.7739C15.629 21.0719 16.0257 21.238 16.4385 21.2352H19.7198C20.1325 21.238 20.5292 21.0719 20.8211 20.7739ZM0.916672 19.6392V16.3C0.916668 15.3903 1.27137 14.518 1.90246 13.8757C2.53355 13.2334 3.38912 12.874 4.28025 12.8768H5.62773C5.97226 12.8392 6.30761 13.0056 6.49142 13.3054C6.67522 13.6053 6.67522 13.9859 6.49142 14.2858C6.30761 14.5856 5.97226 14.7521 5.62773 14.7144H4.28025C3.42075 14.7144 2.7224 15.4226 2.71675 16.3V19.6077C2.7386 20.478 3.42754 21.1767 4.28025 21.1932H7.5821C7.99582 21.196 8.39353 21.0302 8.68704 20.7326C8.98055 20.4349 9.14561 20.03 9.1456 19.6077V14.6409C9.07851 14.27 9.23898 13.8947 9.55102 13.6927C9.86305 13.4907 10.264 13.5026 10.564 13.7228C10.8641 13.9429 11.0029 14.3271 10.9148 14.6934V19.6392C10.9148 21.5355 9.40889 23.0728 7.55124 23.0728H4.28025C2.43865 23.0338 0.95488 21.5191 0.916672 19.6392Z" fill="#676767"/>
</svg>
