<svg width="20" height="20" viewBox="0 0 20 20" fill="none" xmlns="http://www.w3.org/2000/svg">
<path fill-rule="evenodd" clip-rule="evenodd" d="M1.94625 11.0746C1.35625 10.4844 1.35625 9.52408 1.94625 8.92489L2.66625 8.20365C3.23625 7.63447 3.54625 6.88422 3.54625 6.08296V5.05263C3.54625 4.22236 4.22625 3.54213 5.05625 3.54213H6.08625C6.88625 3.54213 7.63625 3.23203 8.20625 2.66185L8.92625 1.94161C9.50625 1.36142 10.4563 1.35142 11.0563 1.92261C11.0662 1.9316 11.0663 1.93161 11.0762 1.94158L11.0763 1.94161C11.2063 2.06165 11.3863 2.14168 11.5863 2.14168C11.9963 2.14168 12.3363 1.81157 12.3363 1.39143C12.3363 1.19137 12.2563 1.01131 12.1263 0.871263C12.0863 0.83125 12.0463 0.80124 12.0063 0.77123C10.8263 -0.299119 8.99625 -0.249102 7.86625 0.882267L7.14625 1.6015C6.86625 1.88259 6.48625 2.04164 6.08625 2.04164H5.05625C3.39625 2.04164 2.04625 3.39208 2.04625 5.05263V6.08296C2.04625 6.48309 1.88625 6.86322 1.60625 7.14331L0.876254 7.87355C-0.293746 9.05393 -0.293746 10.9656 0.886254 12.1359C1.03625 12.285 1.22625 12.355 1.41625 12.355C1.60625 12.355 1.80625 12.275 1.94625 12.1359C2.23625 11.8348 2.23625 11.3647 1.94625 11.0746ZM18.3948 7.14631L19.1128 7.86454C19.6818 8.42973 19.9968 9.18497 19.9998 9.99024C20.0018 10.7955 19.6908 11.5527 19.1238 12.1229L18.3938 12.8532C18.1158 13.1333 17.9558 13.5204 17.9548 13.9175V14.9449C17.9548 16.6054 16.6038 17.9568 14.9438 17.9568C14.5298 17.9568 14.1938 17.6207 14.1938 17.2066C14.1938 16.7925 14.5298 16.4563 14.9438 16.4563C15.7778 16.4563 16.4548 15.7781 16.4548 14.9449V13.9165C16.4558 13.1143 16.7668 12.36 17.3318 11.7938L18.0518 11.0726C18.3448 10.7785 18.5008 10.3984 18.4998 9.99424C18.4988 9.59111 18.3398 9.21198 18.0538 8.92689L17.3328 8.20565C16.7668 7.63547 16.4558 6.88222 16.4548 6.08196V5.05263C16.4548 4.21835 15.7778 3.54113 14.9438 3.54113C14.5298 3.54113 14.1938 3.20502 14.1938 2.79089C14.1938 2.37675 14.5298 2.04064 14.9438 2.04064C16.6038 2.04064 17.9548 3.39108 17.9548 5.05263V6.08096C17.9558 6.48209 18.1118 6.86122 18.3948 7.14631ZM9.99925 18.5015C10.4093 18.5175 10.7853 18.3445 11.0713 18.0554C11.3633 17.7633 11.8383 17.7603 12.1323 18.0524C12.4253 18.3455 12.4263 18.8206 12.1343 19.1147C11.5473 19.7049 10.7733 20 9.99925 20C9.23125 20 8.46225 19.7089 7.87625 19.1257L7.14625 18.3955C6.86325 18.1144 6.48425 17.9573 6.08125 17.9563H5.05525C3.39525 17.9563 2.04425 16.6059 2.04425 14.9454C2.04425 14.5312 2.38025 14.1951 2.79425 14.1951C3.20825 14.1951 3.54425 14.5312 3.54425 14.9454C3.54425 15.7786 4.22125 16.4558 5.05525 16.4558H6.08325C6.88425 16.4568 7.63825 16.7689 8.20525 17.3321L8.92625 18.0544C9.21825 18.3455 9.59725 18.5015 9.99925 18.5015ZM6.89945 12.0387C6.60645 12.3318 6.60645 12.807 6.89945 13.1C7.04545 13.2461 7.23745 13.3191 7.42945 13.3191C7.62145 13.3191 7.81345 13.2461 7.96045 13.1L13.0995 7.95837C13.3925 7.66528 13.3925 7.19012 13.0995 6.89703C12.8065 6.60393 12.3325 6.60393 12.0395 6.89703L6.89945 12.0387ZM7.42055 6.57522C7.89955 6.57522 8.28855 6.96435 8.28855 7.44351C8.28855 7.92266 7.89955 8.31079 7.42055 8.31079C6.94155 8.31079 6.55255 7.92266 6.55255 7.44351C6.55255 6.96435 6.94155 6.57522 7.42055 6.57522ZM12.5696 11.7038C13.0486 11.7038 13.4376 12.0929 13.4376 12.5721C13.4376 13.0512 13.0486 13.4404 12.5696 13.4404C12.0896 13.4404 11.7016 13.0512 11.7016 12.5721C11.7016 12.0929 12.0896 11.7038 12.5696 11.7038Z" fill="#676767"/>
</svg>
