<svg width="23" height="23" viewBox="0 0 23 23" fill="none" xmlns="http://www.w3.org/2000/svg">
<path fill-rule="evenodd" clip-rule="evenodd" d="M17.7107 1.15304C19.5267 1.71778 21.0367 3.01497 21.8898 4.74305C22.8872 6.83752 23.023 9.25092 22.267 11.4478C21.5711 13.4702 20.4302 15.3035 18.9317 16.8075C17.9491 17.8174 16.8903 18.7472 15.7651 19.5885L15.7055 19.6391C15.3317 19.8907 14.829 19.7919 14.5739 19.4166C14.4442 19.2353 14.3922 19.0083 14.4296 18.7873C14.467 18.5662 14.5907 18.3701 14.7725 18.2435C15.8283 17.4479 16.8238 16.5724 17.7504 15.6243C19.0849 14.3111 20.104 12.7019 20.7284 10.9219C21.3289 9.14826 21.2074 7.20347 20.3909 5.52173C19.7338 4.19875 18.5761 3.20555 17.1846 2.77108C15.4097 2.20568 13.4761 2.54843 11.993 3.69133C11.6982 3.91384 11.2952 3.91384 11.0004 3.69133C9.51796 2.54684 7.58354 2.20395 5.80879 2.77108C4.40796 3.19595 3.23871 4.18615 2.57274 5.51162C1.77466 7.19211 1.6605 9.12574 2.2551 10.8916C2.88212 12.6673 3.90095 14.2726 5.23306 15.5839C7.20138 17.5066 9.37187 19.2023 11.7052 20.6402C12.0019 20.8499 12.1324 21.2304 12.0284 21.5828C11.9244 21.9352 11.6096 22.1793 11.2485 22.1875C11.0858 22.1885 10.9265 22.1391 10.7919 22.0459C8.36132 20.5483 6.10086 18.7813 4.0518 16.7772C2.54492 15.2781 1.39984 13.4435 0.706557 11.4174C-0.0233626 9.22362 0.126472 6.82492 1.12347 4.74305C1.97653 3.01497 3.48657 1.71778 5.30254 1.15304C7.39044 0.496044 9.65574 0.798825 11.5066 1.98228C13.3575 0.798825 15.6228 0.496044 17.7107 1.15304ZM16.8967 8.89938C16.8553 7.96482 16.2443 7.15653 15.368 6.87684C15.0422 6.66961 14.8975 6.26246 15.0176 5.89078C15.1376 5.51909 15.4914 5.27902 15.8743 5.30937C17.3544 5.78537 18.408 7.12201 18.5445 8.69712C18.5725 8.91735 18.5127 9.13982 18.3783 9.31469C18.244 9.48957 18.0464 9.60225 17.8298 9.62749C17.3752 9.68734 16.9584 9.36211 16.8967 8.89938Z" fill="#676767"/>
</svg>
