<svg width="29" height="32" viewBox="0 0 29 32" fill="none" xmlns="http://www.w3.org/2000/svg">
<path fill-rule="evenodd" clip-rule="evenodd" d="M14.4999 0.166748H14.5541C22.1695 0.195907 28.3423 6.24987 28.3123 13.6604V13.8076C28.2096 19.1034 24.9419 23.4981 22.2194 26.2516C21.4446 27.0388 20.6199 27.7942 19.7694 28.4996C19.26 28.9231 18.4952 28.8648 18.06 28.3691C17.6248 27.872 17.6862 27.1277 18.1956 26.7042C18.9832 26.0502 19.7495 25.3476 20.47 24.6159C22.8929 22.1665 25.7981 18.2939 25.8866 13.7646C25.9108 7.54259 20.8239 2.55084 14.5441 2.52585H14.4999C8.24151 2.52585 3.13749 7.46899 3.11323 13.5632C3.22025 16.5735 4.26474 19.4353 6.13541 21.836C8.31856 24.6686 11.6304 27.6678 14.7781 29.6645C15.3403 30.02 15.4987 30.7504 15.132 31.2974C14.9009 31.6446 14.5113 31.8334 14.1146 31.8334C13.8878 31.8334 13.6594 31.7723 13.454 31.6418C10.0836 29.5049 6.53636 26.2918 4.19767 23.2579C2.02736 20.4711 0.813067 17.1456 0.6875 13.6451C0.717465 6.16101 6.90878 0.166748 14.4999 0.166748ZM11.6646 13.8058C11.6646 15.3235 12.9346 16.5607 14.4956 16.5607C16.0566 16.5607 17.3266 15.3235 17.3266 13.8058C17.3266 12.2868 16.0566 11.0496 14.4956 11.0496C13.8264 11.0496 13.2827 10.522 13.2827 9.87075C13.2827 9.21814 13.8264 8.69051 14.4956 8.69051C17.3936 8.69051 19.7523 10.9843 19.7523 13.8058C19.7523 16.6259 17.3936 18.9198 14.4956 18.9198C11.5976 18.9198 9.2389 16.6259 9.2389 13.8058C9.2389 13.1532 9.78255 12.6256 10.4518 12.6256C11.121 12.6256 11.6646 13.1532 11.6646 13.8058Z" fill="#C4C4C4"/>
</svg>
