<svg width="20" height="20" viewBox="0 0 20 20" fill="none" xmlns="http://www.w3.org/2000/svg">
<path fill-rule="evenodd" clip-rule="evenodd" d="M0 9.99976C0 4.48476 4.486 -0.000244141 10 -0.000244141C15.514 -0.000244141 20 4.48476 20 9.99976C20 15.5138 15.514 19.9998 10 19.9998C6.872 19.9998 3.983 18.5768 2.073 16.0978C1.828 15.7788 1.887 15.3218 2.205 15.0778C2.523 14.8318 2.979 14.8928 3.225 15.2098C4.857 17.3298 7.327 18.5458 10 18.5458C14.712 18.5458 18.545 14.7128 18.545 9.99976C18.545 5.28776 14.712 1.45376 10 1.45376C5.288 1.45376 1.454 5.28776 1.454 9.99976C1.454 10.4378 1.487 10.8728 1.552 11.2988C1.612 11.6948 1.339 12.0658 0.943 12.1268C0.544 12.1928 0.175 11.9158 0.114 11.5188C0.038 11.0208 0 10.5098 0 9.99976ZM5.5202 8.80376C6.1812 8.80376 6.7182 9.34076 6.7182 9.99976C6.7182 10.6598 6.1812 11.1968 5.5202 11.1968C4.8602 11.1968 4.3222 10.6598 4.3222 9.99976C4.3222 9.34076 4.8602 8.80376 5.5202 8.80376ZM9.9997 8.80376C10.6597 8.80376 11.1977 9.34076 11.1977 9.99976C11.1977 10.6598 10.6597 11.1968 9.9997 11.1968C9.3387 11.1968 8.8017 10.6598 8.8017 9.99976C8.8017 9.34076 9.3387 8.80376 9.9997 8.80376ZM15.6767 9.99976C15.6767 9.34076 15.1397 8.80376 14.4787 8.80376C13.8187 8.80376 13.2807 9.34076 13.2807 9.99976C13.2807 10.6598 13.8187 11.1968 14.4787 11.1968C15.1397 11.1968 15.6767 10.6598 15.6767 9.99976Z" fill="#676767"/>
</svg>
