<svg width="25" height="31" viewBox="0 0 25 31" fill="none" xmlns="http://www.w3.org/2000/svg">
<path fill-rule="evenodd" clip-rule="evenodd" d="M13.3959 1.06331L23.0844 4.36927C24.168 4.73967 24.8958 5.73715 24.8958 6.8542V16.5388C24.8958 19.4743 23.8048 22.3165 21.8253 24.5346C20.9174 25.551 19.7559 26.4246 18.2702 27.2062L13.0342 29.9551C12.8706 30.0397 12.689 30.0834 12.509 30.0834C12.3289 30.0834 12.1488 30.0397 11.9852 29.9551L6.73875 27.2047C5.25005 26.4216 4.0855 25.5481 3.18057 24.5361C1.19814 22.3151 0.104126 19.4714 0.104126 16.5329C0.104126 15.9409 0.599359 15.4596 1.20865 15.4596C1.81793 15.4596 2.31317 15.9409 2.31317 16.5329C2.31317 18.9566 3.21359 21.2986 4.84786 23.1303C5.5757 23.9454 6.53765 24.66 7.78774 25.3162L12.509 27.791L17.2197 25.3177C18.4668 24.6629 19.4272 23.9484 20.1581 23.1303C21.7893 21.3001 22.6883 18.961 22.6883 16.5388V6.8542C22.6883 6.64713 22.5532 6.46338 22.3536 6.39484L12.6665 3.08888C12.56 3.05242 12.4414 3.05242 12.3334 3.08888L2.64782 6.39484C2.44673 6.46338 2.31317 6.64713 2.31317 6.8542V9.62497C2.31317 10.2185 1.81793 10.6997 1.20865 10.6997C0.599359 10.6997 0.104126 10.2185 0.104126 9.62497V6.8542C0.104126 5.73715 0.833469 4.73967 1.91698 4.36927L11.6025 1.06331C12.1818 0.867895 12.8196 0.867895 13.3959 1.06331ZM9.71435 18.9696C9.43222 18.9696 9.15008 18.8646 8.93398 18.6546C8.50328 18.236 8.50328 17.5565 8.93398 17.1379L10.9194 15.2101L8.93398 13.2793C8.50328 12.8608 8.50328 12.1841 8.93398 11.7627C9.36618 11.3441 10.064 11.3441 10.4947 11.7627L12.4801 13.6934L14.4656 11.7627C14.8963 11.3441 15.5941 11.3441 16.0263 11.7627C16.457 12.1841 16.457 12.8608 16.0263 13.2793L14.0409 15.2101L16.0263 17.1379C16.457 17.5565 16.457 18.236 16.0263 18.6546C15.8102 18.8646 15.5281 18.9696 15.246 18.9696C14.9623 18.9696 14.6802 18.8646 14.4656 18.6546L12.4801 16.7267L10.4947 18.6546C10.2786 18.8646 9.99648 18.9696 9.71435 18.9696Z" fill="#676767"/>
</svg>
