<svg width="20" height="20" viewBox="0 0 20 20" fill="#000" xmlns="http://www.w3.org/2000/svg">
<path fill-rule="evenodd" clip-rule="evenodd" d="M-0.000198364 9.99982C-0.000198364 4.48482 4.4858 -0.000183105 9.9998 -0.000183105C15.5138 -0.000183105 19.9998 4.48482 19.9998 9.99982C19.9998 15.5138 15.5138 19.9998 9.9998 19.9998C6.8728 19.9998 3.9828 18.5768 2.0728 16.0978C1.8278 15.7788 1.8878 15.3218 2.2058 15.0778C2.5238 14.8318 2.9788 14.8928 3.2248 15.2098C4.8578 17.3298 7.3268 18.5458 9.9998 18.5458C14.7118 18.5458 18.5458 14.7128 18.5458 9.99982C18.5458 5.28782 14.7118 1.45382 9.9998 1.45382C5.2878 1.45382 1.4548 5.28782 1.4548 9.99982C1.4548 10.4378 1.4868 10.8728 1.5518 11.2988C1.6118 11.6948 1.3398 12.0658 0.942802 12.1268C0.543802 12.1928 0.174802 11.9158 0.114802 11.5188C0.0388016 11.0208 -0.000198364 10.5098 -0.000198364 9.99982ZM8.9339 5.83722C8.9339 5.43522 9.2599 5.10922 9.6609 5.10922C10.0619 5.10922 10.3879 5.43522 10.3879 5.83722V10.2832L13.8119 12.3252C14.1569 12.5312 14.2699 12.9772 14.0639 13.3222C13.9289 13.5492 13.6869 13.6762 13.4399 13.6762C13.3129 13.6762 13.1839 13.6432 13.0679 13.5742L9.2879 11.3202C9.0689 11.1882 8.9339 10.9512 8.9339 10.6952V5.83722Z" fill="#676767"/>
</svg>
